<svg xmlns="http://www.w3.org/2000/svg" xmlns:xlink="http://www.w3.org/1999/xlink" viewBox="0 0 563.9 563.9">
  <defs>
    <linearGradient id="linear-gradient" x1="0.5" y1="0.999" x2="0.5" y2="-0.001" gradientUnits="objectBoundingBox">
      <stop offset="0" stop-color="#0c689b"/>
      <stop offset="1" stop-color="#003459"/>
    </linearGradient>
  </defs>
  <rect width="563.9" height="563.9" fill="url(#linear-gradient)" />
  <g id="WeForzaAppIcon" transform="translate(-15.7 -9.9)">
    <path id="Path_2" data-name="Path 2" d="M142.1,440.6a205.208,205.208,0,0,1,0-290.2" fill="none" stroke="#fff" stroke-linecap="round" stroke-miterlimit="10" stroke-width="9.935"/>
    <path id="Path_3" data-name="Path 3" d="M450.9,150.4a205.208,205.208,0,0,1,0,290.2" fill="none" stroke="#fff" stroke-linecap="round" stroke-miterlimit="10" stroke-width="9.935"/>
    <path id="Path_4" data-name="Path 4" d="M201.6,381a120.711,120.711,0,0,1,0-170.8" fill="none" stroke="#fff" stroke-linecap="round" stroke-miterlimit="10" stroke-width="7.948"/>
    <path id="Path_5" data-name="Path 5" d="M390.2,210.1a120.711,120.711,0,0,1,0,170.8" fill="none" stroke="#fff" stroke-linecap="round" stroke-miterlimit="10" stroke-width="7.948"/>
    <path id="Path_6" data-name="Path 6" d="M129.025-85.576,105.979,0H81.553L66.208-55.748,51.265,0H26.84L3.793-85.576H26.84L40-26.667,55.748-85.576H77.76l15,58.909,13.793-58.909Z" transform="translate(232.183 245.336)" fill="#fff"/>
    <path id="Path_7" data-name="Path 7" d="M82.835-79.144H37.694V-60.89H79.54v18.979H37.694V0H12.521V-98.123H82.835Z" transform="translate(250.038 451.539)" fill="#fff"/>
  </g>
</svg>
